<svg xmlns="http://www.w3.org/2000/svg" viewBox="2032.7 44.2 772.0 926.4"><path d="m 15636.4,13169.7 c 105.6,296.8 283.7,529.5 515.1,672.8 218.1,135.2 435.8,202.5 648.7,202.5 267.8,0 527.8,-106.7 770.8,-319.3 203.8,-178.3 363.2,-382.5 479.9,-584.2 -36.2,-51.9 -66.3,-101.1 -91.4,-146.4 -148.3,-268 -200.9,-551.3 -140.7,-757.8 49.8,-170.5 170.6,-266.2 323.8,-256.7 124.7,0.1 219.4,68.9 267,194 67.4,177.2 33.1,463.6 -91.6,766.3 -26.3,63.8 -56,127.2 -88.9,189.5 137.4,175.5 349,375.3 672.4,550.7 266.2,144.4 593.4,164.2 921.4,55.9 357.3,-118 657.4,-374.6 802.7,-686.4 301.4,-647.1 15.3,-1408.1 -352.9,-1904.6 -270.9,-365.2 -618.1,-677.8 -954,-980.2 -178.7,-160.9 -363.5,-327.26 -536.2,-500.76 -256.2,-257.41 -461.3,-514.79 -614.6,-770.96 -30.9,23.75 -61.8,47.48 -92.6,71.12 -302.4,232.12 -615,472.14 -907.1,724.04 -444.7,383.66 -803.7,776.16 -1067.2,1166.86 -314.7,466.7 -502.4,944.1 -557.8,1419 -35.8,307.2 -2.7,624.9 93.2,894.6 z m 2494.4,-179.2 c 152.4,-317.6 196.5,-610.4 138.6,-762.6 -33.4,-87.9 -89.7,-97.6 -128.6,-97.3 -1.9,0 -3.9,-0.1 -5.9,-0.2 -104.1,-7.5 -151.1,76.9 -172,148.9 -58.1,198.9 28,462.7 127.9,643.2 12,21.7 25.3,44.4 40,68 z m -2154.2,-2218.3 c 270.9,-401.7 638.9,-804.24 1093.7,-1196.54 295.2,-254.7 609.6,-496.04 913.7,-729.44 36.4,-27.95 72.9,-56 109.5,-84.11 -176.1,-332.36 -264.6,-662.31 -264.2,-987.35 0,-41.4 33.6,-74.91 75,-74.91 h 0.1 c 41.4,0.05 74.9,33.67 74.9,75.09 -0.4,292.76 78.3,591.58 234.8,894.21 449.4,-347.6 900.3,-711.79 1285.6,-1130.89 14.7,-16.09 34.9,-24.24 55.2,-24.24 18.1,0 36.3,6.54 50.7,19.78 30.5,28.03 32.5,75.48 4.5,105.98 -398.6,433.58 -862,806.4 -1322.5,1162.14 147.8,250.44 348.4,503.29 601.2,757.3 169.8,170.59 353.1,335.57 530.3,495.08 341.3,307.3 694.2,625.1 974.1,1002.4 393.9,531.1 697.6,1350.5 368.3,2057.2 -162.3,348.6 -495.7,634.8 -891.6,765.5 -367.7,121.4 -737,97.8 -1039.9,-66.4 -315.7,-171.2 -532.6,-365.8 -680.6,-542.8 -129.4,210.2 -293.4,405.4 -479.6,568.3 -241.7,211.5 -502.5,330.2 -775,352.6 -272.7,22.5 -549.3,-51.9 -822.3,-221 -260.6,-161.5 -460.3,-420.9 -577.4,-750.1 -103.5,-290.9 -139.3,-632.7 -100.9,-962.2 58.2,-499 254.2,-998.8 582.4,-1485.6" fill="#C9A38C" transform="matrix(0.13333333,0,0,-0.13333333,0,1954.6667)"></path></svg>